<?xml version="1.0" standalone="no"?>
<!DOCTYPE svg PUBLIC "-//W3C//DTD SVG 20010904//EN"
 "http://www.w3.org/TR/2001/REC-SVG-20010904/DTD/svg10.dtd">
<svg version="1.0" xmlns="http://www.w3.org/2000/svg"
 width="512.000000pt" height="512.000000pt" viewBox="0 0 512.000000 512.000000"
 preserveAspectRatio="xMidYMid meet">
<metadata>
Created by potrace 1.13, written by Peter Selinger 2001-2015
</metadata>
<g transform="translate(0.000000,512.000000) scale(0.100000,-0.100000)"
fill="#000000" stroke="none">
<path d="M800 5106 c-312 -59 -562 -246 -700 -524 -44 -91 -66 -157 -86 -267
-21 -120 -21 -3390 0 -3510 39 -213 131 -389 278 -531 147 -142 306 -222 513
-260 120 -21 3390 -21 3510 0 213 39 389 131 531 278 142 147 222 306 260 513
21 120 21 3390 0 3510 -28 150 -83 288 -163 399 -116 163 -310 305 -493 361
-153 46 -112 45 -1900 44 -1273 -1 -1701 -4 -1750 -13z m3340 -1266 l0 -300
-207 0 c-115 0 -226 -5 -247 -10 -49 -11 -85 -37 -111 -81 -18 -31 -20 -56
-24 -261 l-3 -228 271 0 271 0 0 -23 c0 -13 -13 -146 -30 -297 -16 -151 -30
-275 -30 -277 0 -2 -108 -3 -240 -3 l-240 0 0 -885 0 -885 -400 0 -400 0 0
885 0 885 -155 0 -155 0 0 300 0 300 154 0 154 0 5 283 c6 304 14 371 63 494
96 242 295 368 619 392 61 4 244 9 408 10 l297 1 0 -300z"/>
</g>
</svg>
